<svg width="80" height="36" viewBox="0 0 100 36" fill="none" xmlns="http://www.w3.org/2000/svg"><path d="M17.774 2.98741C14.7127 1.62444 11.2354 1.53339 8.10697 2.73427C4.97855 3.93516 2.45532 6.32961 1.09235 9.39089C-0.270621 12.4522 -0.36168 15.9295 0.839205 19.0579C2.04009 22.1863 4.43455 24.7096 7.49583 26.0725L17.774 2.98741Z" fill="#363472"></path><path fill-rule="evenodd" clip-rule="evenodd" d="M18.3639 28.3065C14.5695 29.763 10.352 29.6526 6.63899 27.9995L10.1461 20.1223C10.4331 20.2749 10.7313 20.4088 11.0389 20.5225C12.3242 20.9977 13.7148 21.0995 15.0347 20.815C16.3546 20.5304 17.5445 19.8724 18.454 18.9241C19.3635 17.9759 19.9516 16.7799 20.144 15.4875C20.3365 14.1952 20.1245 12.8645 19.535 11.6638L16.5905 5.64805L19.1052 0C22.8181 1.65312 25.7223 4.7135 27.1788 8.50788C28.6354 12.3023 28.5249 16.5199 26.8718 20.2328C25.2187 23.9458 22.1583 26.85 18.3639 28.3065ZM16.5905 5.64805L10.3488 8.26753C9.12001 8.79598 8.09341 9.66876 7.39886 10.7755C6.70432 11.8822 6.37303 13.1731 6.4469 14.485C6.52077 15.7968 6.99649 17.0706 7.81387 18.1453C8.43566 18.9629 9.23391 19.6372 10.1461 20.1223L16.5905 5.64805Z" fill="#FF99BB"></path><path d="M33.2576 17.5957C33.2576 15.5203 33.7764 13.5798 34.8141 11.7742C35.8726 9.9686 37.2942 8.53657 39.0791 7.47811C40.8847 6.39891 42.8355 5.8593 44.9317 5.8593C47.0279 5.8593 48.9684 6.39891 50.7532 7.47811C52.5588 8.53657 53.9908 9.9686 55.0493 11.7742C56.1285 13.5798 56.6681 15.5203 56.6681 17.5957C56.6681 19.7126 56.1285 21.6635 55.0493 23.4483C53.9908 25.2332 52.5588 26.6548 50.7532 27.7133C48.9684 28.751 47.0279 29.2698 44.9317 29.2698C42.8148 29.2698 40.8639 28.751 39.0791 27.7133C37.2942 26.6548 35.8726 25.2332 34.8141 23.4483C33.7764 21.6635 33.2576 19.7126 33.2576 17.5957ZM37.9272 17.5957C37.9272 18.924 38.2385 20.1484 38.8612 21.2692C39.5045 22.3899 40.3658 23.2823 41.445 23.9464C42.545 24.5898 43.7591 24.9115 45.0874 24.9115C46.3741 24.9115 47.5467 24.5898 48.6052 23.9464C49.6636 23.2823 50.4938 22.4003 51.0956 21.3003C51.6975 20.1796 51.9984 18.9447 51.9984 17.5957C51.9984 16.2259 51.6871 14.9807 51.0645 13.86C50.4419 12.7393 49.591 11.8572 48.5118 11.2138C47.4533 10.5497 46.2703 10.2176 44.9628 10.2176C43.6553 10.2176 42.462 10.5497 41.3828 11.2138C40.3243 11.8572 39.4838 12.7393 38.8612 13.86C38.2385 14.9807 37.9272 16.2259 37.9272 17.5957Z" fill="#363472"></path><path d="M64.8108 4.4584V29.0208H60.4525V4.4584H64.8108Z" fill="#363472"></path><path d="M83.3705 15.4165L75.65 29.301H75.5255L67.3692 15.4165H72.5369L75.7123 21.8918L78.5141 15.4165H83.3705Z" fill="#363472"></path><path d="M100 15.4165L91.2211 35.5583H87.0184L90.2872 28.3048L83.9987 15.4165H88.8863L92.4664 23.4483L96.0776 15.4165H100Z" fill="#363472"></path></svg>